<?xml version="1.0" encoding="utf-8"?>
<!-- Generator: Adobe Illustrator 24.0.2, SVG Export Plug-In . SVG Version: 6.00 Build 0)  -->
<svg version="1.1" id="Layer_1" xmlns="http://www.w3.org/2000/svg" xmlns:xlink="http://www.w3.org/1999/xlink" x="0px" y="0px"
	 viewBox="0 0 354.3 141.7" style="enable-background:new 0 0 354.3 141.7;" xml:space="preserve">
<style type="text/css">
	.st0{fill:#333333;}
</style>
<g id="HATCH">
	<path class="st0" d="M46.9,48.2h10.4v35.5c0,5-1.4,9-4.2,12s-6.3,4.5-10.7,4.5c-4.7,0-8.4-1.4-11-4.2c-2.6-2.8-3.9-6.7-3.9-11.7
		h10.4c0,4.8,1.5,7.3,4.5,7.3c3,0,4.5-2.8,4.5-8.4V48.2z"/>
</g>
<g id="HATCH_1_">
	<path class="st0" d="M94.3,89H80.2l-2.7,10.5h-11l16-51.3H92l16.1,51.3H97.1L94.3,89L94.3,89z M82.5,80.4h9.6l-4.8-18.3L82.5,80.4
		L82.5,80.4z"/>
</g>
<g id="HATCH_2_">
	<polygon class="st0" points="134.8,79.7 130.7,84.9 130.7,99.5 120.4,99.5 120.4,48.2 130.7,48.2 130.7,70.6 134,65.1 143.6,48.2 
		156.3,48.2 141.6,70.8 156.5,99.5 144.2,99.5 134.8,79.7 	"/>
</g>
<g id="HATCH_3_">
	<path class="st0" d="M202.2,78.5c0,6.9-1.6,12.2-4.9,16c-3.3,3.8-7.8,5.7-13.6,5.7c-5.8,0-10.3-1.9-13.6-5.7c-3.3-3.8-5-9.1-5-15.8
		V70c0-7,1.6-12.6,4.9-16.5s7.8-5.9,13.6-5.9c5.7,0,10.2,1.9,13.5,5.8c3.3,3.9,5,9.3,5,16.4V78.5z M191.8,69.9c0-4.6-0.7-8.1-2-10.3
		s-3.4-3.4-6.1-3.4c-2.7,0-4.8,1.1-6.1,3.3c-1.3,2.2-2,5.5-2,9.9v9.1c0,4.5,0.7,7.8,2,9.9c1.3,2.1,3.4,3.2,6.2,3.2
		c2.7,0,4.7-1,6-3.1c1.3-2.1,2-5.3,2-9.7V69.9z"/>
</g>
<g id="HATCH_4_">
	<path class="st0" d="M216.2,99.5V48.2h15.9c5.4,0,9.4,1.2,12.2,3.6s4.2,5.9,4.2,10.5c0,2.6-0.6,4.9-1.7,6.7s-2.7,3.3-4.7,4.1
		c2.3,0.7,4.1,2,5.3,4c1.2,2,1.9,4.4,1.9,7.3c0,5-1.4,8.7-4.1,11.3s-6.7,3.8-11.9,3.8H216.2z M226.6,69.7h5.4c4.1,0,6.1-2.1,6.1-6.3
		c0-2.3-0.5-4-1.4-5c-0.9-1-2.5-1.5-4.6-1.5h-5.5V69.7z M226.6,77.2v13.7h6.6c1.9,0,3.3-0.6,4.2-1.7c1-1.2,1.4-2.8,1.4-4.9
		c0-4.6-1.7-7-5-7.1H226.6z"/>
</g>
<g id="HATCH_5_">
	<polygon class="st0" points="275.6,71.3 283.3,48.2 294.6,48.2 280.9,80.9 280.9,99.5 270.4,99.5 270.4,80.9 256.6,48.2 
		267.9,48.2 275.6,71.3 	"/>
</g>
<g id="HATCH_6_">
	<path class="st0" d="M304.3,42.9c0-0.8,0.2-1.4,0.7-1.9c0.5-0.5,1.2-0.7,2-0.7c0.8,0,1.5,0.2,2,0.7c0.5,0.5,0.7,1.1,0.7,1.9
		c0,0.8-0.2,1.4-0.7,1.9c-0.5,0.5-1.1,0.8-2,0.8s-1.5-0.3-2-0.8S304.3,43.6,304.3,42.9z"/>
</g>
<g id="HATCH_7_">
	<polygon class="st0" points="309.5,67.3 304.5,67.3 304.5,48.2 309.5,48.2 309.5,67.3 	"/>
</g>
<g id="HATCH_8_">
	<path class="st0" d="M312.1,57.2c0-2.9,0.7-5.2,2-6.8c1.4-1.6,3.2-2.5,5.7-2.5c2.4,0,4.3,0.8,5.7,2.5c1.4,1.6,2,3.9,2,6.8v1.2
		c0,2.9-0.7,5.2-2,6.8c-1.4,1.6-3.2,2.4-5.7,2.4c-2.4,0-4.3-0.8-5.7-2.5c-1.4-1.6-2-3.9-2-6.8V57.2z M317.1,58.4
		c0,3.4,0.9,5.1,2.7,5.1c1.7,0,2.6-1.4,2.7-4.3l0-2.1c0-1.7-0.2-3-0.7-3.9c-0.5-0.8-1.2-1.3-2-1.3c-0.8,0-1.5,0.4-2,1.3
		c-0.5,0.8-0.7,2.1-0.7,3.9V58.4z"/>
</g>
</svg>
